<?xml version="1.0" encoding="utf-8"?>
<!-- Generator: Adobe Illustrator 23.0.0, SVG Export Plug-In . SVG Version: 6.00 Build 0)  -->
<svg version="1.1" id="Слой_1" xmlns="http://www.w3.org/2000/svg" xmlns:xlink="http://www.w3.org/1999/xlink" x="0px" y="0px"
	 viewBox="0 0 30 633" style="enable-background:new 0 0 30 633;" xml:space="preserve">
<style type="text/css">
	.st0{fill-rule:evenodd;clip-rule:evenodd;fill:#AB1424;}
</style>
<path class="st0" d="M16,11.9l8.1,7.7v12.9l-17,16l0,0l0,0l9,9.2v142.6l0,0v6.7l0,0v-3.6l-3.5,3.3L7,201v11l5.5-5.5l3.5,3.3v81.7
	l4.4,4.7l9.5,9.2l-6,6.2l0.1,36.3l-13,12.7v33.6l7,7.2l0,74.3l-5.5,5.8l8.3,8.6L18,493l0,140H0L0,0l16,0V11.9z M12.2,81.6v-1.7H7
	v1.7H12.2z M12.2,84.2v-1.7H7v1.7H12.2z M12.2,96.4v-1.7H7v1.7H12.2z M12.2,117.2V112H7v5.2H12.2z M18.7,324.7v-1.7H17v1.7H18.7z
	 M18.7,331.3v-1.7h-5.2v1.7H18.7z M18.7,344.8V343H17v1.7H18.7z M15.3,344.8V343h-1.7v1.7H15.3z"/>
</svg>
