<?xml version="1.0" encoding="utf-8"?>
<!-- Generator: Adobe Illustrator 23.0.0, SVG Export Plug-In . SVG Version: 6.00 Build 0)  -->
<svg version="1.1" id="Слой_1" xmlns="http://www.w3.org/2000/svg" xmlns:xlink="http://www.w3.org/1999/xlink" x="0px" y="0px"
	 viewBox="0 0 633 30" style="enable-background:new 0 0 633 30;" xml:space="preserve">
<style type="text/css">
	.st0{fill-rule:evenodd;clip-rule:evenodd;fill:#D11428;}
</style>
<path class="st0" d="M621.1,16l-7.7,8.1h-12.9l-16-17l0,0l0,0l-9.2,9H432.8l0,0h-6.7l0,0h3.6l-3.3-3.5L432,7h-11l5.5,5.5l-3.3,3.5
	h-81.7l-4.7,4.4l-9.2,9.5l-6.2-6L285.1,24l-12.7-13h-33.6l-7.2,7l-74.3,0l-5.8-5.5l-8.6,8.3L140,18L0,18V0h633v16H621.1z
	 M551.4,12.2h1.7V7h-1.7V12.2z M548.8,12.2h1.7V7h-1.7V12.2z M536.6,12.2h1.7V7h-1.7V12.2z M515.8,12.2h5.2V7h-5.2V12.2z
	 M308.3,18.7h1.7V17h-1.7V18.7z M301.7,18.7h1.7v-5.2h-1.7V18.7z M288.2,18.7h1.7V17h-1.7V18.7z M288.2,15.3h1.7v-1.7h-1.7V15.3z"/>
</svg>
